<svg width="46" height="46" viewBox="0 0 46 46" fill="none" xmlns="http://www.w3.org/2000/svg">
<path d="M26.5431 11.3961C26.5431 11.1499 26.4946 10.9062 26.4004 10.6787C26.3062 10.4513 26.1681 10.2446 25.994 10.0705C25.8199 9.89643 25.6132 9.75834 25.3858 9.66413C25.1583 9.56991 24.9146 9.52142 24.6684 9.52142H15.7194C15.2282 9.52444 14.7579 9.72037 14.4099 10.067C14.0619 10.4136 13.8641 10.8831 13.859 11.3742C13.854 11.8654 14.0423 12.3388 14.3831 12.6924C14.724 13.0461 15.1902 13.2516 15.6812 13.2646V32.2342C15.6802 33.1452 15.9553 34.0352 16.4701 34.7868C16.9849 35.5384 17.7153 36.1164 18.5651 36.4447C19.4149 36.7731 20.3442 36.8362 21.2306 36.6259C22.117 36.4157 22.9189 35.9418 23.5307 35.2668C24.2206 35.955 25.0942 36.4298 26.047 36.6343C26.4031 36.7084 26.766 36.7459 27.1298 36.746C27.8027 36.7475 28.4692 36.6162 29.0913 36.3597C29.7133 36.1031 30.2787 35.7264 30.7549 35.2511C31.2312 34.7757 31.609 34.2111 31.8667 33.5895C32.1244 32.968 32.257 32.3017 32.2568 31.6288C32.2295 30.5932 31.9142 29.5858 31.3462 28.7195L27.6728 21.8924C27.6219 21.7944 27.5446 21.7125 27.4496 21.656C27.3547 21.5995 27.2458 21.5706 27.1353 21.5727C27.0252 21.5731 26.9172 21.6035 26.8229 21.6607C26.7287 21.7178 26.6517 21.7995 26.6004 21.8969L24.7076 25.4867V13.2663C25.1972 13.2561 25.6633 13.0547 26.0064 12.7052C26.3494 12.3557 26.542 11.8858 26.5431 11.3961ZM20.1944 35.5323C19.32 35.5313 18.4817 35.1835 17.8634 34.5652C17.2451 33.9469 16.8973 33.1086 16.8963 32.2342V13.2695H23.4925V27.7912C23.4925 27.7912 22.8221 29.0903 22.6971 29.36V19.188C22.6971 19.0269 22.6331 18.8723 22.5192 18.7584C22.4053 18.6445 22.2507 18.5804 22.0896 18.5804H18.2996C18.2198 18.5804 18.1407 18.5961 18.067 18.6266C17.9933 18.6571 17.9263 18.7019 17.8699 18.7583C17.8134 18.8147 17.7687 18.8817 17.7382 18.9554C17.7076 19.0292 17.692 19.1082 17.692 19.188V31.9805C17.691 32.522 17.8659 33.0491 18.1904 33.4827C18.5148 33.9162 18.9713 34.2327 19.4911 34.3844C20.0109 34.5362 20.5659 34.5151 21.0727 34.3242C21.5794 34.1333 22.0105 33.7831 22.301 33.3261C22.4186 33.6659 22.5729 33.9919 22.7614 34.2982C22.4532 34.6829 22.0625 34.9936 21.6182 35.2072C21.174 35.4208 20.6874 35.5319 20.1944 35.5323ZM21.4821 19.7969V31.9805C21.4849 32.1513 21.4536 32.321 21.3902 32.4797C21.3267 32.6383 21.2324 32.7828 21.1125 32.9046C20.9927 33.0264 20.8498 33.1232 20.6922 33.1892C20.5346 33.2552 20.3655 33.2892 20.1946 33.2892C20.0237 33.2892 19.8545 33.2552 19.6969 33.1892C19.5393 33.1232 19.3965 33.0264 19.2766 32.9046C19.1568 32.7828 19.0624 32.6383 18.999 32.4797C18.9355 32.321 18.9043 32.1513 18.9071 31.9805V19.7969H21.4821ZM27.1433 23.4727L30.2828 29.3076C30.2869 29.316 30.2916 29.3241 30.2967 29.3319C30.7526 30.0139 31.0105 30.809 31.0417 31.6288C31.0426 32.2094 30.9135 32.7828 30.664 33.3071C30.4144 33.8313 30.0507 34.2931 29.5996 34.6585C29.142 35.0275 28.6077 35.2896 28.0358 35.4256C27.4639 35.5615 26.8689 35.568 26.2942 35.4445C25.5862 35.2912 24.9352 34.9431 24.4147 34.4393C23.8942 33.9355 23.525 33.2962 23.3488 32.5936C23.0495 31.3326 23.5918 30.2588 24.1671 29.1219L27.1433 23.4727ZM24.6694 12.0544H15.7194C15.6296 12.0598 15.5396 12.0468 15.455 12.0162C15.3703 11.9856 15.2929 11.938 15.2273 11.8763C15.1618 11.8146 15.1096 11.7402 15.0739 11.6576C15.0382 11.575 15.0198 11.486 15.0198 11.396C15.0198 11.306 15.0382 11.2169 15.0739 11.1343C15.1096 11.0517 15.1618 10.9773 15.2273 10.9156C15.2929 10.8539 15.3703 10.8063 15.455 10.7757C15.5396 10.7451 15.6296 10.7321 15.7194 10.7376H24.6694C24.7592 10.7321 24.8492 10.7451 24.9339 10.7757C25.0185 10.8063 25.0959 10.8539 25.1615 10.9156C25.227 10.9773 25.2792 11.0517 25.3149 11.1343C25.3506 11.2169 25.369 11.306 25.369 11.396C25.369 11.486 25.3506 11.575 25.3149 11.6576C25.2792 11.7402 25.227 11.8146 25.1615 11.8763C25.0959 11.938 25.0185 11.9856 24.9339 12.0162C24.8492 12.0468 24.7592 12.0598 24.6694 12.0544Z" fill="#9F938B"/>
</svg>
